<?xml version="1.0" encoding="utf-8"?>
<!-- Generator: Adobe Illustrator 24.0.2, SVG Export Plug-In . SVG Version: 6.00 Build 0)  -->
<svg version="1.1" id="Layer_1" xmlns="http://www.w3.org/2000/svg" xmlns:xlink="http://www.w3.org/1999/xlink" x="0px" y="0px"
	 viewBox="0 0 4096 4096" style="enable-background:new 0 0 4096 4096;" xml:space="preserve">
<style type="text/css">
	.st0{fill:#020202;}
</style>
<g id="Logo">
	<g>
		<path id="M" d="M314.7,1407.6l999.7,544.7c2,1.1,3.9,2.1,5.9,3.2c62.9,35.9,109.9,94.4,132.7,163.2l296.8,1162.8
			c24.5,74.1,76.8,136.2,146.5,171.6c93.9,47.7,206.6,47.8,300.7,0.4c69.7-35.2,122.2-97.3,146.9-171.2l298.9-1163.5
			c22.9-68.8,69.9-127.5,133-163.4c1.8-1.1,3.4-2,5.2-2.8L3782.8,1406c59.2-32.4,131.4,10.5,131.4,78.1v1518.7
			c0,121.3-68.5,232.1-176.9,286.3L2191,4062.3c-90.2,45-196.1,45-286.3,0L358.6,3289.1c-108.5-54.2-177.1-165.2-176.9-286.6
			l1.6-1517C183.3,1418.1,255.5,1375.3,314.7,1407.6z"/>
		<g id="A">
			<path class="st0" d="M2048.1,2089.2c-82.9,0-155.9-43.4-195.8-116.1l-227.1-415.4c-20.6-37.9-51.6-68.6-89.4-89.4l-415.4-227.1
				c-72.7-39.7-116.1-112.9-116.1-195.8s43.4-155.9,116.1-195.8l415.4-227.1c37.9-20.6,68.6-51.6,89.4-89.4l227.1-415.4
				C1892,45,1965.2,1.6,2048.1,1.6c82.9,0,155.9,43.4,195.8,116.1L2471,533.1c20.6,37.9,51.6,68.6,89.4,89.4l415.4,227.1
				c72.7,39.7,116.1,112.9,116.1,195.8s-43.4,155.9-116.1,195.8l-415.4,227.1c-37.9,20.6-68.6,51.6-89.4,89.4l-227.1,415.4
				C2204,2045.8,2130.9,2089.2,2048.1,2089.2z"/>
			<path d="M2048.1,2.9c38.9,0,77,10,110.2,28.8c35.4,20.1,64.5,50,84.6,86.6L2470,533.6c20.8,37.9,51.7,69,89.8,89.8l415.4,227.1
				c36.6,20.1,66.7,49.3,86.6,84.6c18.8,33.3,28.8,71.5,28.8,110.2c0,38.9-10,77-28.8,110.2c-20.1,35.4-50,64.5-86.6,84.6
				l-415.4,227.1c-37.9,20.8-69,51.7-89.8,89.8l-227,415.5c-20.1,36.6-49.3,66.7-84.6,86.6c-33.3,18.8-71.5,28.8-110.2,28.8
				c-38.9,0-77-10-110.2-28.8c-35.4-20.1-64.5-50-84.6-86.6l-227.1-415.4c-20.8-37.9-51.7-69-89.8-89.8l-415.4-227.1
				c-36.6-20.1-66.7-49.3-86.6-84.6c-18.8-33.3-28.8-71.5-28.8-110.2c0-38.9,10-77,28.8-110.2c20.1-35.4,50-64.5,86.6-84.6
				l415.4-227.1c37.9-20.8,69-51.7,89.8-89.8l227.1-415.4c20.1-36.6,49.3-66.7,84.6-86.6C1971.1,12.8,2009.1,2.9,2048.1,2.9
				 M2048.1,1.1c-77,0-154,38.8-196.5,116.5L1624.5,533c-20.6,37.5-51.4,68.5-89.1,89.1l-415.4,227c-155.4,85-155.4,308,0,393
				l415.4,227.1c37.5,20.6,68.5,51.4,89.1,89.1l227.1,415.4c42.5,77.7,119.5,116.5,196.5,116.5c77,0,154-38.8,196.5-116.5
				l227.1-415.4c20.6-37.5,51.4-68.5,89.1-89.1l415.4-227.1c155.4-85,155.4-308,0-393L2560.7,622c-37.5-20.6-68.5-51.4-89.1-89.1
				l-227.1-415.4C2202.1,39.8,2125.1,1.1,2048.1,1.1L2048.1,1.1z"/>
		</g>
	</g>
</g>
</svg>
