<?xml version="1.0" standalone="no"?>
<!DOCTYPE svg PUBLIC "-//W3C//DTD SVG 20010904//EN"
 "http://www.w3.org/TR/2001/REC-SVG-20010904/DTD/svg10.dtd">
<svg version="1.0" xmlns="http://www.w3.org/2000/svg"
 width="1574.000000pt" height="1756.000000pt" viewBox="0 0 1574.000000 1756.000000"
 preserveAspectRatio="xMidYMid meet">

<g transform="translate(0.000000,1756.000000) scale(0.100000,-0.100000)"
fill="#000000" stroke="none">
<path d="M4121 17544 c-130 -35 -249 -128 -310 -243 -64 -120 -61 -60 -61
-1267 0 -1071 1 -1104 20 -1166 51 -167 201 -306 363 -337 33 -6 777 -11 2017
-15 2168 -5 2010 0 2147 -68 77 -38 178 -128 229 -205 21 -31 51 -96 68 -143
25 -73 29 -100 29 -185 l0 -100 -130 -390 c-352 -1051 -906 -2592 -2313 -6425
-510 -1391 -923 -2520 -1076 -2950 -40 -112 -49 -147 -49 -205 0 -88 35 -166
101 -224 87 -77 -34 -71 1625 -69 l1484 3 66 32 c72 36 126 83 165 145 25 39
3311 9474 3388 9727 155 507 259 1087 296 1646 15 234 13 596 -6 726 -62 445
-265 844 -590 1159 -308 298 -664 475 -1105 547 -96 16 -337 17 -3204 20
-2692 2 -3107 0 -3154 -13z"/>
<path d="M4095 8044 c-66 -19 -226 -70 -355 -114 -2060 -686 -3405 -1838
-3678 -3150 -39 -186 -47 -271 -47 -500 1 -243 13 -359 62 -565 282 -1198
1478 -2268 3303 -2955 1626 -613 3633 -868 5620 -715 1879 145 3579 649 4832
1433 889 556 1504 1253 1759 1990 97 281 132 489 133 777 1 276 -22 407 -117
650 -195 506 -686 1055 -1390 1556 -647 460 -1421 878 -2357 1271 -98 41 -186
72 -216 75 -113 12 -227 -62 -258 -168 -20 -66 -20 -92 0 -158 24 -83 76 -126
219 -185 171 -70 496 -228 665 -325 380 -218 655 -425 915 -692 327 -336 505
-646 587 -1022 19 -87 22 -132 22 -302 0 -183 -2 -210 -28 -320 -191 -822
-997 -1550 -2286 -2064 -1990 -795 -4733 -850 -6846 -137 -578 195 -1039 415
-1469 702 -670 446 -1077 963 -1195 1519 -28 131 -37 385 -21 566 37 400 140
733 323 1038 183 303 496 609 850 831 259 162 664 342 1023 455 222 70 246 80
286 119 130 126 80 351 -92 411 -62 22 -111 18 -244 -21z"/>
</g>
</svg>
