<svg xmlns="http://www.w3.org/2000/svg" viewBox="0 0 24 24" fill="currentColor">
  <path d="M22.281 9.821a5.985 5.985 0 0 0-.773-2.94 6.057 6.057 0 0 0-8.044-2.205l-.155.09-2.502 1.445-.032-.019a5.954 5.954 0 0 0-2.947-.777 6.061 6.061 0 0 0-6.056 6.056v.18l-1.489.86a6.055 6.055 0 0 0-2.201 8.273 6.055 6.055 0 0 0 8.273 2.201l.155-.09 2.502-1.445.032.019a5.954 5.954 0 0 0 2.947.777 6.061 6.061 0 0 0 6.056-6.056v-.18l1.489-.86a6.055 6.055 0 0 0 2.201-8.273 5.985 5.985 0 0 0-2.456-2.276Zm-10.287 9.84a4.02 4.02 0 0 1-2.052-.564l.103-.058 3.406-1.967a.488.488 0 0 0 .242-.421V8.84l2.34 1.352a.05.05 0 0 1 .026.045v5.57a4.028 4.028 0 0 1-4.025 3.855Zm-8.968-.24a4.024 4.024 0 0 1 1.464-5.498l.103-.058v3.934a.487.487 0 0 0 .242.421l6.763 3.905-2.34 1.351a.05.05 0 0 1-.052 0l-4.824-2.784a4.024 4.024 0 0 1-1.356-1.271Zm1.464-10.919a4.028 4.028 0 0 1 5.497-1.464l.103.058-3.406 1.967a.487.487 0 0 0-.242.421v7.81l-2.34-1.351a.05.05 0 0 1-.026-.045v-5.57A4.028 4.028 0 0 1 4.49 8.502Zm12.423 4.932-6.763-3.905 2.34-1.351a.05.05 0 0 1 .052 0l4.824 2.784a4.028 4.028 0 0 1 1.356 5.498l-.103.058v-3.934a.488.488 0 0 0-.242-.421Zm1.27-5.707a4.024 4.024 0 0 1-1.464 5.498l-.103.058V9.349a.487.487 0 0 0-.242-.421L9.611 5.023l2.34-1.351a.05.05 0 0 1 .052 0l4.824 2.784a4.024 4.024 0 0 1 1.356 1.271Zm-8.53 5.932a2.347 2.347 0 1 1 4.694 0 2.347 2.347 0 0 1-4.694 0Z"/>
</svg>
