<svg id="v2_-_colour" xmlns="http://www.w3.org/2000/svg" viewBox="0 0 1788.07 1528.43"><defs><style>.cls-1, .cls-2, .cls-3, .cls-4, .cls-5, .cls-6, .cls-7, .cls-8, .cls-9, .cls-10, .cls-11 {
stroke-width: 10px;
}
.cls-1, .cls-2, .cls-3, .cls-4, .cls-5, .cls-8, .cls-10 {
stroke-linecap: round;
stroke-linejoin: round;
}
.cls-1, .cls-4, .cls-5 {
stroke: #72777a;
}
.cls-1, .cls-11 {
fill: #d7cde0;
}
.cls-2 {
fill: #e6b9b0;
}
.cls-2, .cls-3, .cls-6, .cls-7, .cls-9, .cls-11 {
stroke: #74787a;
}
.cls-3 {
fill: #e3a096;
}
.cls-4 {
fill: #d4f4fc;
}
.cls-5 {
fill: #ffbbb9;
}
.cls-6 {
fill: #909191;
}
.cls-6, .cls-7, .cls-9, .cls-11 {
stroke-miterlimit: 10;
}
.cls-7 {
fill: #afb1af;
}
.cls-8, .cls-10 {
stroke: #231f20;
}
.cls-9 {
fill: #dddfd2;
}
.cls-10 {
fill: #231f20;
}</style></defs><path class="cls-7" d="M510.39 1421.66c-9.25 26.14-17.26 52.45-30.98 77.61-5.72 9.15-14.87 14.87-25.16 19.44-21.73 8.01-44.61 4.58-66.34-1.14-45.75-13.73-86.93-29.74-129.25-52.61-20.59-11.44-37.74-22.88-57.19-36.6-35.46-26.31-67.48-50.33-94.93-83.49-1.14-1.14.0-2.29-1.14-3.43-45.75-50.33-80.06-107.51-91.5-175-2.29-17.16-1.14-34.31 1.14-51.47 2.29-10.29 4.58-19.44 8.01-29.74 1.14-2.29 2.29-5.72 3.43-8.01 9.15-17.16 20.59-33.17 37.74-42.32 1.14-1.14 2.29-2.29 3.43-3.43 6.86-2.29 13.73-5.72 21.73-6.86 8.01.0 17.16-1.14 25.16 1.14 6.86 2.29 12.58 4.58 19.44 8.01 69.77 35.46 114.38 94.93 161.27 157.84 2.29 2.29 4.58 4.58 6.86 6.86 1.14 2.29 2.29 5.72 4.58 8.01 1.14 1.14 2.29 2.29 3.04 3.55l-.6-.94c4.43-41.5 9-82.68 19.8-122.7l148.44-120.37c9.81 5.12 18.45 12.28 25.67 20.63 14.33 16.58 22.3 37.66 29.68 58.01 7.89 21.75 14.01 44.14 18.32 66.88"/><g><path class="cls-1" d="M600.64 680.33c-10.29 6.86-20.59 11.44-32.03 16.01-9.15 2.29-17.16 5.72-26.31 8.01-16.01 2.29-30.88 4.58-45.75 5.72-12.58.0-25.16-1.14-37.74-2.29-32.03-4.58-60.62-16.01-89.1-30.06l55.05 21.96c31.76 74.44 54.64 153.36 52.35 234.56-1.14 32.03-6.86 64.05-21.73 93.79-13.73 26.31-35.46 46.89-64.05 56.04-50.33 14.87-98.36-12.58-133.82-46.89-41.18-40.03-67.48-88.07-88.07-139.54-44.61-115.52-59.48-237.9-57.19-360.29 6.86-91.5 38.89-178.43 96.08-255.06 25.16-33.17 51.47-59.48 84.64-84.64 41.18-30.88 82.35-50.33 132.68-60.62 22.88-4.58 43.46-5.72 65.19-6.86 21.73.0 42.32 2.29 64.05 5.72 16.01 3.43 29.74 8.01 44.61 13.73 35.46 14.87 65.19 37.74 89.21 69.77 64.05 89.21 64.05 200.16 32.67 297.78L600.64 680.33z"/><path class="cls-2" d="M442 383.28c-122.94-48.07-146.56 118.27 13.83 142.35 16.98 2.86 34 .18 51.01-.86 32.4-19.56 62.57-68.48 63.84-107.48 10.56-90.55-94.14-122.63-128.37-33.47l-.31-.55z"/></g><path class="cls-4" d="M935.25 647.09c-.81-11.12-3.97-21.96-9.39-31.71-11.84-21.27-27.04-40.64-46.53-55.49-26.62-20.29-59.59-31.97-92.38-37.31-18.76-3.05-37.81-4.09-56.8-3.7h-1.06c-46.81-1.65-94.47 3.89-137.29 23.84-17.68 8.24-36.41 18.61-47.21 35.48-11.73 18.32-10.52 41.91.3 60.33 18.87 32.13 56.76 44.26 91.43 50.03 21.87 3.64 44.21 4.36 65.91 9.03 19.32 4.16 40.44 12.13 52.22 28.98 12.29 17.58 9.12 41.39-10.94 51.33-10.39 5.15-22.16 8.13-33.31 11.17-12.17 3.31-24.47 6.1-36.81 8.7-37.64 7.93-79.1 11.3-112.37 32.27-34.93 22.02-51.5 63.71-50.54 103.94 1.09 45.15 24.48 86.83 60.22 113.72 36.32 27.32 80.42 36.5 125.19 35.8 25.06-.39 49.82-4.27 74.77-6.14 25.5-1.91 50.43-1.11 75.37 4.81.11.03.23.05.34.08 20.09 4.79 41.25 1.43 58.82-9.41l13.38-8.26c16.41-10.13 28.46-26.02 33.78-44.56 2.67-9.3 4.52-18.81 6.03-28.21.96-5.93 1.21-11.96.77-17.95l-23.92-326.78zM739.59 978.78c-89.11 28.56-133.72-94.03-31.76-102.74h1.06c71.88-14.12 97.22 81.42 30.7 102.74z"/><path class="cls-5" d="M1595.33 1267.01c24.91-.08 49.66 4.41 74.6 3.22 42.03-2.01 86.49-23.63 104.81-63.21 18.93-40.89 3.38-88.64-24.22-121.52-28.27-33.68-69.72-54.61-113.18-59.72-11.81-1.39-23.76-1.66-35.63-.9h-1.06c-7.66.27-15.32.69-22.95 1.41l-128.14 58.33c-18.53 18.91-36.83 38.35-50.56 62.37-14.87 27.45-24.02 54.9-33.02 83.71l45.33 226.39c31.11 33.69 74.34 53.91 119.42 60.41 46.92 6.76 97.18-.28 141.33-17.15 39.13-14.96 76.3-40.58 93-80.37 8.29-19.76 11.33-41.72 6.77-62.78-4.39-20.29-14.23-42.3-34.68-50.59-19.79-8.02-42.73-2.65-62.33 3.23-22.91 6.88-44.84 16.61-67.56 24.08-19.63 6.46-47.17 13.62-64.78-1.42-13.82-11.81-15.04-33.47-3.64-47.33 13.23-16.09 37.18-18.11 56.49-18.17zM1597.46 1130.11l1.06-.52c22.84-1.56 41.21 6.13 50.93 28.21 23.75 45.54-68.97 56.52-90.25 41.18-36.72-26.49 2.22-68.85 38.26-68.86z"/><path class="cls-5" d="M669.75 1331.72c-12.42-10.75-14.79-29.37-6.03-43.27 18.7-29.71 71.84-21.27 113.48-18.43 25.72 1.75 51.6-2.86 74.66-14.37 122.75-61.27 35.91-240.6-122.81-230.38h-1.06c-267.97 1.51-351.9 459.09-58.28 492.81 93.02 6.62 231.12-33.11 231.28-144.84.0-1.66-.13-3.35-.38-4.99-22.49-150.67-177.02 10.09-230.87-36.53zM724.81 1130.18l1.05-.52c22.77-1.55 41.08 6.11 50.77 28.12 23.68 45.4-68.76 56.35-89.96 41.05-36.61-26.41 2.21-68.64 38.14-68.65z"/><g><path class="cls-4" d="M1348.94 1222.21c101.09 54.48 119.94 241.75-1.38 281.5-124.1 51.84-390.44-23.13-263.71-188.38"/><polyline class="cls-4" points="1083.86 1315.33 1223.16 1205.49 1346.64 1223.15"/><path class="cls-4" d="M1233.74 1339.78c-22.33 2.79-46.35 3.94-69.22 2.79-21.73-2.29-43.46-6.86-64.05-17.16-16.01-8.01-28.59-18.3-37.74-33.17-20.59-29.74-20.59-64.05-13.42-95.99l108.05-166.26 245.82 58.97c5.9 12.03 8.92 25.59 7.7 38.99l-38.08 76.39c-7.91 7.29-16.73 13.61-26.15 18.8-34.11 18.81-77.32 21.5-112.9 5.01"/></g><path class="cls-1" d="M1033.03 1039.74c-138.14 6.81-214.57 140.3-189.17 268.78 14.98 78.74 39.67 198.64 134.12 211.98 113.59-16.97 50.79-202.82 24.14-273.21-21.86-103.54 84.83-26.57 129.32-51.97 100.04-71.97-3.29-168.93-97.36-155.57"/><g><path class="cls-6" d="M1089.19 663.42c-125.84-104.33-335.61.73-212.92 161.47 38.37 50.98-97.49 181.86 104.53 152.61"/><path class="cls-6" d="M1598.45 981.3c124.74 30.15 142.29-25.01 118.1-119.11-4.89-19.03-4.97-38.97.03-57.97 13.87-52.66 23.34-107.73-24.83-149.18-52.46-45.1-148.51-33.44-193.57 16.24"/><path class="cls-9" d="M1600.73 900.87c80.01.6 27.15-206.9-44.01-153.27"/><path class="cls-9" d="M1027.09 740.01c-48.63-24.24-72.07 29.17-77.49 69.03-6.56 30.86-18.64 87.29 30.45 81.21"/><path class="cls-7" d="M1389.01 1084.89c73.95 2.68 177.69-11.31 204.86-91.81 16.66-74.05-1.78-152.78-30.31-221.58-66.16-175.58-303.32-228.23-450.94-123.18-85.39 56.28-121.64 160.12-133.2 257.49-2.44 44.92-5.61 95.07 30.24 128.95 47.78 42.9 117.81 52.82 179.78 50.13"/><g><path class="cls-6" d="M1173.78 881.63c-3.22 9.67-5.13 20.13-5.43 31.36-.06 2.05-.15 4.1-.35 6.14-5.33 54.91.36 110.88 22.23 161.58l.76.76c121.58 252.32 282.42-83.11 203.63-222.46-39.69-68.83-136.35-70.05-189.61-23.65"/><path class="cls-8" d="M1205.01 835.35c-5.16-13.94-19.05-23.65-35.06-22.38-16.31 1.3-29.72 14.34-31.41 30.62-2.18 20.98 14.52 38.65 35.19 38.08l.05-.04c6.16-18.5 17.18-34.04 31.22-46.28z"/><path class="cls-8" d="M1372.59 832.4c5.16-13.94 19.05-23.65 35.06-22.38 16.31 1.3 29.72 14.34 31.41 30.62 2.18 20.98-14.52 38.65-35.19 38.08l-.05-.04c-6.16-18.5-17.18-34.04-31.22-46.28z"/></g></g><g><path class="cls-11" d="M1415.86 240.26c73.41-202.22-140.41-289.64-127.41-28.57"/><path class="cls-11" d="M1288.45 211.69c-8.27-264.62-220.49-155.09-126.99 28.57"/><path class="cls-11" d="M1520.19 584.83c115.32 129.96-209.73 172.9-134.61 43.11"/><path class="cls-11" d="M1057.77 584.83c-15.62 13.89-23.31 31.76-24.31 52.18-4.38 47.09 50.32 61.33 87.41 67.04 55.02 10.98 96.76-13.27 76.01-73.48"/><path class="cls-2" d="M1383.66 226.74c50.08-123.8-60.95-161.53-61.83-14.81"/><path class="cls-2" d="M1254.2 212.57c-4.46-142.29-117.05-103.08-63.12 14.81"/><path class="cls-11" d="M1380.44 629.91c-71.14 7.55-145.37 8.44-216.38-6.54-85.39-17.49-158.42-46.52-135.22-149.32 17.03-98.98 64.64-214.69 168.06-247.9 54.56-17.43 114.17-20.75 169.36-3.89 120.97 28.64 172.25 165.43 185.6 276.89 12.19 95.98-93.41 117.22-166.27 128.78l-5.15 1.97z"/><circle class="cls-10" cx="1391.81" cy="428.47" r="24.22"/><circle class="cls-10" cx="1185.08" cy="428.47" r="24.22"/><path class="cls-3" d="M1288.45 464.97c-37.78-10.67-8.72-32 0-18.67h0c8.72-13.33 37.78 8 0 18.67"/></g></svg>